<svg xmlns="http://www.w3.org/2000/svg" version="1.1" xmlns:xlink="http://www.w3.org/1999/xlink" xmlns:svgjs="http://svgjs.dev/svgjs" width="1000" height="1000" viewBox="0 0 1000 1000"><g transform="matrix(1,0,0,1,-0.14221556886212738,-0.14221556886229791)"><svg viewBox="0 0 334 334" data-background-color="#ffffff" preserveAspectRatio="xMidYMid meet" height="1000" width="1000" xmlns="http://www.w3.org/2000/svg" xmlns:xlink="http://www.w3.org/1999/xlink"><g id="tight-bounds" transform="matrix(1,0,0,1,0.04749999999998522,0.04750000000001364)"><svg viewBox="0 0 333.90454557049503 333.90454557049503" height="333.90454557049503" width="333.90454557049503"><g><svg></svg></g><g><svg viewBox="0 0 333.90454557049503 333.90454557049503" height="333.90454557049503" width="333.90454557049503"><g><path d="M0 166.952c0-92.205 74.747-166.952 166.952-166.952 92.205 0 166.952 74.747 166.953 166.952 0 92.205-74.747 166.952-166.953 166.953-92.205 0-166.952-74.747-166.952-166.953zM166.952 316.63c82.665 0 149.677-67.013 149.678-149.678 0-82.665-67.013-149.677-149.678-149.677-82.665 0-149.677 67.013-149.677 149.677 0 82.665 67.013 149.677 149.677 149.678z" data-fill-palette-color="tertiary" fill="#ff4136" stroke="transparent"></path><ellipse rx="160.27418187383762" ry="160.27418187383762" cx="166.95227278524752" cy="166.95227278524752" fill="#ff4136" stroke="transparent" stroke-width="0" fill-opacity="1" data-fill-palette-color="tertiary"></ellipse></g><g transform="matrix(1,0,0,1,118.27586712840144,71.17305217166896)"><svg viewBox="0 0 97.35281131369213 191.55844122715712" height="191.55844122715712" width="97.35281131369213"><g><svg viewBox="0 0 97.35281131369213 191.55844122715712" height="191.55844122715712" width="97.35281131369213"><g><svg viewBox="0 0 97.35281131369213 191.55844122715712" height="191.55844122715712" width="97.35281131369213"><g><svg viewBox="0 0 97.35281131369213 191.55844122715712" height="191.55844122715712" width="97.35281131369213"><g id="textblocktransform"><svg viewBox="0 0 97.35281131369213 191.55844122715712" height="191.55844122715712" width="97.35281131369213" id="textblock"><g><svg viewBox="0 0 97.35281131369213 191.55844122715712" height="191.55844122715712" width="97.35281131369213"><g transform="matrix(1,0,0,1,0,0)"><svg width="97.35281131369213" viewBox="-2.3 -35.9 23.2 45.65" height="191.55844122715712" data-palette-color="#ffffff"><path d="M7.8-25.35L7.8 2.75Q7.8 6.05 6.08 7.9 4.35 9.75 1.3 9.75L1.3 9.75Q-0.35 9.75-2.3 9L-2.3 9-2.3 5.5Q-0.4 6.3 1.1 6.3L1.1 6.3Q3.9 6.3 3.9 2.65L3.9 2.65 3.9-25.35 7.8-25.35ZM7.65-35.15Q8.4-34.4 8.4-33.3 8.4-32.2 7.65-31.48 6.9-30.75 5.8-30.75 4.7-30.75 3.98-31.48 3.25-32.2 3.25-33.3 3.25-34.4 3.98-35.15 4.7-35.9 5.8-35.9 6.9-35.9 7.65-35.15ZM20.9-5.05L14.45 6.15 11 6.15 15.65-5.05 20.9-5.05ZM20.75-18.95L20.75-18.95Q20.75-17.7 19.9-16.88 19.05-16.05 17.8-16.05 16.55-16.05 15.72-16.88 14.9-17.7 14.9-18.95L14.9-18.95Q14.9-20.15 15.72-21 16.55-21.85 17.8-21.85 19.05-21.85 19.9-21 20.75-20.15 20.75-18.95Z" opacity="1" transform="matrix(1,0,0,1,0,0)" fill="#ffffff" class="wordmark-text-0" data-fill-palette-color="quaternary" id="text-0"></path></svg></g></svg></g></svg></g></svg></g><g></g></svg></g></svg></g></svg></g></svg></g><defs></defs></svg><rect width="333.90454557049503" height="333.90454557049503" fill="none" stroke="none" visibility="hidden"></rect></g></svg></g></svg>